<?xml version="1.0" encoding="UTF-8" standalone="no"?>
<!DOCTYPE svg PUBLIC "-//W3C//DTD SVG 1.1//EN" "http://www.w3.org/Graphics/SVG/1.1/DTD/svg11.dtd">
<svg width="100%" height="100%" viewBox="-40 -40 1280 400" version="1.1" xmlns="http://www.w3.org/2000/svg" xmlns:xlink="http://www.w3.org/1999/xlink" xml:space="preserve" xmlns:serif="http://www.serif.com/" style="fill-rule:evenodd;clip-rule:evenodd;stroke-linejoin:round;stroke-miterlimit:2;">
    <defs>
        <filter id="white-outline-radius-15" x="-8%" y="-20%" width="116%" height="140%" color-interpolation-filters="sRGB">
            <feMorphology in="SourceAlpha" operator="dilate" radius="15" result="expanded"/>
            <feFlood flood-color="white" result="outline-color"/>
            <feComposite in="outline-color" in2="expanded" operator="in" result="outline"/>
            <feMerge>
                <feMergeNode in="outline"/>
                <feMergeNode in="SourceGraphic"/>
            </feMerge>
        </filter>
    </defs>
    <g id="banana" filter="url(#white-outline-radius-15)" transform="matrix(0.597716,0,0,0.597716,-8.650056,-29.271147)">
        <g id="inner-background" serif:id="inner background" transform="matrix(0.75,0,0,0.75,0,0)">
            <path d="M362.433,94.143L439.175,113.13L436.01,200.948L481.105,233.385L511.96,328.322L578.417,489.717L649.62,542.724L705,555.382L673.354,606.015L577.625,617.883L465.282,572.787L432.845,530.856L406.738,567.249L342.655,630.541L245.344,662.978L189.963,651.902L252.464,611.553L267.496,540.35L185.216,571.205L78.411,579.907L191.545,507.122L258.002,445.412L269.869,314.873L276.198,253.955L353.731,184.334L362.433,94.143Z" style="fill:rgb(255,187,0);fill-rule:nonzero;"/>
        </g>
        <g id="black-outline" serif:id="black outline" transform="matrix(0.75,0,0,0.75,0,0)">
            <path d="M362.02,78.837C358.746,79.078 355.6,80.215 352.929,82.123L352.929,82.053C348.867,84.924 346.179,89.361 345.517,94.291L334.118,178.484C315.572,185.824 298.588,200.167 285.448,216.386C269.122,236.435 256.473,261.942 253.072,287.363C246.504,337.046 244.932,374.331 245.519,404.213C243.417,411.3 239.585,420.679 234.121,431.205C224.259,450.4 210.302,467.186 193.213,480.365C138.971,521.646 102.404,538.562 46.014,564.698L38.042,568.405C20.603,576.452 26.388,602.619 45.594,602.6C141.696,602.6 203.295,590.9 241.463,576.446C240.106,580.78 238.593,585.271 236.918,590.012C217.083,626.926 187.869,635.443 174.192,639.382L170.906,640.361C163.434,642.678 158.306,649.636 158.306,657.459C158.306,666.338 164.911,673.943 173.703,675.185C321.929,696.345 407.648,618.725 437.472,554.279L439.43,556.867C481.642,613.006 535.297,633.505 578.797,638.123C626.917,644.461 661.973,633.247 685.997,614.558C709.556,596.262 721.094,571.869 724.388,553.86C724.582,552.798 724.68,551.721 724.68,550.642C724.68,540.821 716.599,532.74 706.778,532.74C706.727,532.74 706.677,532.741 706.626,532.741C671.145,533.135 644.501,522.615 623.342,505.609C601.752,488.244 584.867,463.369 570.546,433.653C556.189,403.972 545.033,370.698 534.113,337.222L531.596,329.669C521.678,299.201 511.667,268.568 499.709,242.539C489.003,219.302 473.269,207.097 461.598,199.113L456.353,195.617C453.704,193.863 451.947,192.639 450.479,191.421L458.94,114.99C459.96,105.865 453.802,97.36 444.815,95.48L366.915,79.186C365.307,78.846 363.66,78.728 362.02,78.837ZM378.383,118.136L421.529,127.157L414.326,192.26L414.188,194.918C414.654,206.088 421.168,213.45 426.216,217.854C430.094,220.976 434.132,223.894 438.314,226.595L441.391,228.623C450.843,235.068 460.393,242.754 467.124,257.433C478.187,281.457 487.585,310.164 497.753,341.277L499.991,348.27C510.839,381.567 522.738,417.025 538.241,449.177C553.78,481.328 573.543,511.457 600.897,533.44C623.924,552.035 651.771,563.702 681.175,567.076C676.652,574.475 670.823,580.991 663.972,586.306C648.469,598.336 623.305,607.898 583.205,602.599L582.716,602.527C547.414,598.803 503.443,582.371 468.034,535.326C432.373,487.886 403.962,407.435 404.678,272.815C404.679,272.786 404.679,272.758 404.679,272.729C404.679,262.908 396.597,254.827 386.776,254.827C377.002,254.827 368.942,262.831 368.874,272.605C368.3,380.41 385.712,458.258 413.138,513.789C407.087,553.351 355.238,633.763 241.813,642.177C252.904,631.554 262.165,619.173 269.225,605.535L270.204,603.227C280.874,573.26 285.966,549.814 287.756,528.404C289.511,507.065 287.872,488.409 285.938,468.825L285.378,463.302C283.523,444.82 281.421,424.184 281.183,397.5C281.249,395.752 281.265,394.046 281.183,392.395C281.184,365.939 283.009,333.637 288.525,292.048C290.852,274.612 300.07,255.05 313.21,238.902C326.529,222.505 341.735,212.179 353.908,209.672C361.298,208.119 366.945,202.05 367.964,194.568L378.383,118.136ZM250.344,472.603C252.231,491.912 253.555,507.739 252.093,525.469C251.912,527.665 251.665,529.896 251.393,532.182C234.292,542.749 198.428,556.424 131.396,562.95C160.646,547.213 188.595,529.117 214.891,508.826C228.388,498.439 240.28,486.224 250.344,472.603Z" style="fill-rule:nonzero;"/>
        </g>
    </g>
    <g id="words" filter="url(#white-outline-radius-15)" transform="matrix(0.657012,0,0,0.657012,-517.122335,-618.310217)">
        <g id="banana1" serif:id="banana" transform="matrix(6.556509,0,0,6.556509,-7986.722476,-4785.229757)">
            <path d="M1421.046,875.685C1420.046,875.735 1419.546,876.235 1419.546,877.235L1419.546,909.185C1419.546,910.135 1420.096,910.685 1421.046,910.685L1433.396,910.685C1442.796,910.685 1445.546,907.685 1445.546,901.485C1445.546,898.385 1444.046,895.885 1441.996,894.935C1444.046,892.685 1444.546,889.385 1444.546,887.685C1444.546,879.485 1440.946,875.685 1431.546,875.685L1421.046,875.685ZM1429.646,891.085C1428.696,891.085 1428.146,890.585 1428.146,889.585L1428.146,885.785C1428.146,884.785 1428.696,884.285 1429.646,884.285L1432.346,884.285C1434.746,884.285 1435.946,884.585 1435.946,887.685C1435.946,890.785 1434.746,891.085 1432.346,891.085L1429.646,891.085ZM1429.596,903.585C1428.646,903.585 1428.096,903.085 1428.096,902.085L1428.096,899.785C1428.096,898.785 1428.646,898.285 1429.596,898.285L1432.846,898.285C1435.246,898.285 1436.346,898.635 1436.346,900.985C1436.346,903.335 1435.146,903.585 1432.746,903.585L1429.596,903.585Z" style="fill-rule:nonzero;"/>
            <path d="M1473.096,908.985C1473.096,910.085 1472.596,910.685 1471.596,910.685L1465.996,910.685C1465.046,910.685 1464.496,910.185 1464.496,909.185L1464.496,904.835C1464.496,903.835 1463.996,903.335 1462.996,903.335L1458.696,903.335C1457.746,903.335 1457.196,903.835 1457.196,904.835L1457.196,909.185C1457.196,910.185 1456.696,910.685 1455.696,910.685L1450.096,910.685C1449.146,910.685 1448.596,910.085 1448.596,908.985L1448.596,887.785C1448.596,881.485 1449.596,874.785 1460.846,874.785C1472.096,874.785 1473.096,881.485 1473.096,887.785L1473.096,908.985ZM1464.496,887.785C1464.496,885.385 1464.146,884.185 1460.846,884.185C1457.546,884.185 1457.196,885.385 1457.196,887.785L1457.196,893.235C1457.196,894.185 1457.746,894.735 1458.696,894.735L1462.996,894.735C1463.996,894.685 1464.496,894.185 1464.496,893.185L1464.496,887.785Z" style="fill-rule:nonzero;"/>
            <path d="M1486.696,875.685C1487.546,875.685 1488.096,876.035 1488.446,876.835L1495.246,893.485C1495.446,893.935 1495.846,893.835 1495.846,893.335L1495.846,877.185C1495.846,876.185 1496.396,875.685 1497.346,875.685L1502.946,875.685C1503.946,875.685 1504.446,876.185 1504.446,877.185L1504.446,909.185C1504.446,910.135 1503.946,910.685 1502.946,910.685L1495.596,910.685C1494.746,910.685 1494.196,910.335 1493.846,909.535L1487.046,892.885C1486.846,892.435 1486.446,892.535 1486.446,893.035L1486.446,909.185C1486.446,910.135 1485.946,910.685 1484.946,910.685L1479.346,910.685C1478.396,910.685 1477.846,910.135 1477.846,909.185L1477.846,877.185C1477.846,876.185 1478.396,875.685 1479.346,875.685L1486.696,875.685Z" style="fill-rule:nonzero;"/>
            <path d="M1533.696,908.985C1533.696,910.085 1533.196,910.685 1532.196,910.685L1526.596,910.685C1525.646,910.685 1525.096,910.185 1525.096,909.185L1525.096,904.835C1525.096,903.835 1524.596,903.335 1523.596,903.335L1519.296,903.335C1518.346,903.335 1517.796,903.835 1517.796,904.835L1517.796,909.185C1517.796,910.185 1517.296,910.685 1516.296,910.685L1510.696,910.685C1509.746,910.685 1509.196,910.085 1509.196,908.985L1509.196,887.785C1509.196,881.485 1510.196,874.785 1521.446,874.785C1532.696,874.785 1533.696,881.485 1533.696,887.785L1533.696,908.985ZM1525.096,887.785C1525.096,885.385 1524.746,884.185 1521.446,884.185C1518.146,884.185 1517.796,885.385 1517.796,887.785L1517.796,893.235C1517.796,894.185 1518.346,894.735 1519.296,894.735L1523.596,894.735C1524.596,894.685 1525.096,894.185 1525.096,893.185L1525.096,887.785Z" style="fill-rule:nonzero;"/>
            <path d="M1547.296,875.685C1548.146,875.685 1548.696,876.035 1549.046,876.835L1555.846,893.485C1556.046,893.935 1556.446,893.835 1556.446,893.335L1556.446,877.185C1556.446,876.185 1556.996,875.685 1557.946,875.685L1563.546,875.685C1564.546,875.685 1565.046,876.185 1565.046,877.185L1565.046,909.185C1565.046,910.135 1564.546,910.685 1563.546,910.685L1556.196,910.685C1555.346,910.685 1554.796,910.335 1554.446,909.535L1547.646,892.885C1547.446,892.435 1547.046,892.535 1547.046,893.035L1547.046,909.185C1547.046,910.135 1546.546,910.685 1545.546,910.685L1539.946,910.685C1538.996,910.685 1538.446,910.135 1538.446,909.185L1538.446,877.185C1538.446,876.185 1538.996,875.685 1539.946,875.685L1547.296,875.685Z" style="fill-rule:nonzero;"/>
            <path d="M1594.296,908.985C1594.296,910.085 1593.796,910.685 1592.796,910.685L1587.196,910.685C1586.246,910.685 1585.696,910.185 1585.696,909.185L1585.696,904.835C1585.696,903.835 1585.196,903.335 1584.196,903.335L1579.896,903.335C1578.946,903.335 1578.396,903.835 1578.396,904.835L1578.396,909.185C1578.396,910.185 1577.896,910.685 1576.896,910.685L1571.296,910.685C1570.346,910.685 1569.796,910.085 1569.796,908.985L1569.796,887.785C1569.796,881.485 1570.796,874.785 1582.046,874.785C1593.296,874.785 1594.296,881.485 1594.296,887.785L1594.296,908.985ZM1585.696,887.785C1585.696,885.385 1585.346,884.185 1582.046,884.185C1578.746,884.185 1578.396,885.385 1578.396,887.785L1578.396,893.235C1578.396,894.185 1578.946,894.735 1579.896,894.735L1584.196,894.735C1585.196,894.685 1585.696,894.185 1585.696,893.185L1585.696,887.785Z" style="fill-rule:nonzero;"/>
        </g>
        <g id="sport-optics" serif:id="sport optics" transform="matrix(3.650004,0,0,3.650004,-4718.469404,-3997.561091)">
            <path d="M1679.227,1442.8C1680.127,1442.6 1680.577,1442.05 1680.527,1441.15C1680.227,1437.55 1677.827,1430.85 1667.527,1430.85C1656.327,1430.85 1655.427,1439.7 1655.477,1441.2C1655.477,1452.7 1670.527,1451.75 1671.477,1456C1671.777,1457.35 1669.977,1458.8 1667.527,1458.8C1665.177,1458.8 1663.327,1457.4 1663.127,1455C1663.027,1453.95 1662.477,1453.5 1661.477,1453.7L1655.827,1454.95C1654.927,1455.15 1654.477,1455.7 1654.527,1456.6C1654.777,1460.5 1657.027,1467.4 1667.527,1467.4C1679.377,1467.4 1681.077,1458.55 1681.077,1457.05C1681.077,1445.55 1665.277,1445.65 1664.577,1441.75C1664.377,1440.6 1665.577,1439.45 1667.527,1439.45C1669.877,1439.45 1671.527,1440.75 1671.877,1442.8C1672.027,1443.8 1672.527,1444.25 1673.527,1444.05L1679.227,1442.8Z" style="fill-rule:nonzero;"/>
            <path d="M1686.177,1431.65C1685.177,1431.7 1684.677,1432.2 1684.677,1433.2L1684.677,1465.15C1684.677,1466.1 1685.227,1466.65 1686.177,1466.65L1691.777,1466.65C1692.777,1466.65 1693.277,1466.15 1693.277,1465.15L1693.277,1457.15C1693.277,1456.15 1693.827,1455.65 1694.777,1455.65L1697.177,1455.65C1706.077,1455.65 1709.677,1451.85 1709.677,1443.65C1709.677,1435.45 1706.077,1431.65 1697.177,1431.65L1686.177,1431.65ZM1694.777,1447.05C1693.827,1447.05 1693.277,1446.5 1693.277,1445.55L1693.277,1441.75C1693.277,1440.75 1693.827,1440.25 1694.777,1440.25L1697.477,1440.25C1699.877,1440.25 1701.077,1440.55 1701.077,1443.65C1701.077,1446.75 1699.877,1447.05 1697.477,1447.05L1694.777,1447.05Z" style="fill-rule:nonzero;"/>
            <path d="M1737.377,1442.9C1737.377,1439.6 1736.677,1430.75 1724.827,1430.75C1712.977,1430.75 1712.277,1439.6 1712.277,1442.9L1712.277,1455.4C1712.277,1458.7 1712.977,1467.55 1724.827,1467.55C1736.677,1467.55 1737.377,1458.7 1737.377,1455.4L1737.377,1442.9ZM1728.777,1452.75C1728.777,1456.6 1728.527,1458.95 1724.827,1458.95C1721.127,1458.95 1720.877,1456.6 1720.877,1452.75L1720.877,1445.55C1720.877,1441.7 1721.127,1439.35 1724.827,1439.35C1728.527,1439.35 1728.777,1441.7 1728.777,1445.55L1728.777,1452.75Z" style="fill-rule:nonzero;"/>
            <path d="M1762.927,1454.1C1762.827,1453.85 1762.877,1453.6 1763.077,1453.45C1765.727,1451.55 1766.877,1448.3 1766.877,1443.65C1766.877,1435.45 1763.277,1431.65 1754.377,1431.65L1743.427,1431.65C1742.527,1431.65 1741.877,1432.3 1741.877,1433.2L1741.877,1465.1C1741.877,1466 1742.527,1466.65 1743.427,1466.65L1749.027,1466.65C1749.927,1466.65 1750.577,1466 1750.577,1465.1L1750.577,1457.2C1750.577,1456.3 1751.227,1455.65 1752.127,1455.65L1754.127,1455.65C1754.277,1455.65 1754.427,1455.75 1754.527,1455.9L1759.727,1465.95C1759.927,1466.4 1760.377,1466.65 1760.877,1466.65L1766.577,1466.65C1768.127,1466.65 1768.927,1465.25 1768.227,1463.95L1762.927,1454.1ZM1754.677,1440.25C1757.077,1440.25 1758.277,1440.55 1758.277,1443.65C1758.277,1446.75 1757.077,1447.05 1754.677,1447.05L1752.127,1447.05C1751.227,1447.05 1750.577,1446.4 1750.577,1445.5L1750.577,1441.8C1750.577,1440.9 1751.227,1440.25 1752.127,1440.25L1754.677,1440.25Z" style="fill-rule:nonzero;"/>
            <path d="M1778.527,1441.75C1778.527,1440.75 1778.027,1440.25 1777.027,1440.25L1770.027,1440.25C1769.077,1440.25 1768.527,1439.7 1768.527,1438.75L1768.527,1433.15C1768.527,1432.15 1769.077,1431.65 1770.027,1431.65L1795.627,1431.65C1796.627,1431.65 1797.127,1432.15 1797.127,1433.15L1797.127,1438.75C1797.127,1439.7 1796.627,1440.25 1795.627,1440.25L1788.627,1440.25C1787.677,1440.25 1787.127,1440.75 1787.127,1441.75L1787.127,1465.15C1787.127,1466.1 1786.627,1466.65 1785.627,1466.65L1780.027,1466.65C1779.077,1466.65 1778.527,1466.1 1778.527,1465.15L1778.527,1441.75Z" style="fill-rule:nonzero;"/>
            <path d="M1839.727,1442.9C1839.727,1439.6 1839.027,1430.75 1827.177,1430.75C1815.327,1430.75 1814.627,1439.6 1814.627,1442.9L1814.627,1455.4C1814.627,1458.7 1815.327,1467.55 1827.177,1467.55C1839.027,1467.55 1839.727,1458.7 1839.727,1455.4L1839.727,1442.9ZM1831.127,1452.75C1831.127,1456.6 1830.877,1458.95 1827.177,1458.95C1823.477,1458.95 1823.227,1456.6 1823.227,1452.75L1823.227,1445.55C1823.227,1441.7 1823.477,1439.35 1827.177,1439.35C1830.877,1439.35 1831.127,1441.7 1831.127,1445.55L1831.127,1452.75Z" style="fill-rule:nonzero;"/>
            <path d="M1845.727,1431.65C1844.727,1431.7 1844.227,1432.2 1844.227,1433.2L1844.227,1465.15C1844.227,1466.1 1844.777,1466.65 1845.727,1466.65L1851.327,1466.65C1852.327,1466.65 1852.827,1466.15 1852.827,1465.15L1852.827,1457.15C1852.827,1456.15 1853.377,1455.65 1854.327,1455.65L1856.727,1455.65C1865.627,1455.65 1869.227,1451.85 1869.227,1443.65C1869.227,1435.45 1865.627,1431.65 1856.727,1431.65L1845.727,1431.65ZM1854.327,1447.05C1853.377,1447.05 1852.827,1446.5 1852.827,1445.55L1852.827,1441.75C1852.827,1440.75 1853.377,1440.25 1854.327,1440.25L1857.027,1440.25C1859.427,1440.25 1860.627,1440.55 1860.627,1443.65C1860.627,1446.75 1859.427,1447.05 1857.027,1447.05L1854.327,1447.05Z" style="fill-rule:nonzero;"/>
            <path d="M1880.327,1441.75C1880.327,1440.75 1879.827,1440.25 1878.827,1440.25L1871.827,1440.25C1870.877,1440.25 1870.327,1439.7 1870.327,1438.75L1870.327,1433.15C1870.327,1432.15 1870.877,1431.65 1871.827,1431.65L1897.427,1431.65C1898.427,1431.65 1898.927,1432.15 1898.927,1433.15L1898.927,1438.75C1898.927,1439.7 1898.427,1440.25 1897.427,1440.25L1890.427,1440.25C1889.477,1440.25 1888.927,1440.75 1888.927,1441.75L1888.927,1465.15C1888.927,1466.1 1888.427,1466.65 1887.427,1466.65L1881.827,1466.65C1880.877,1466.65 1880.327,1466.1 1880.327,1465.15L1880.327,1441.75Z" style="fill-rule:nonzero;"/>
            <path d="M1908.927,1431.65C1909.927,1431.65 1910.427,1432.15 1910.427,1433.15L1910.427,1465.15C1910.427,1466.1 1909.927,1466.65 1908.927,1466.65L1903.427,1466.65C1902.477,1466.65 1901.927,1466.1 1901.927,1465.15L1901.927,1433.15C1901.927,1432.15 1902.477,1431.65 1903.427,1431.65L1908.927,1431.65Z" style="fill-rule:nonzero;"/>
            <path d="M1914.927,1455.4C1914.927,1458.7 1915.627,1467.55 1927.477,1467.55C1938.127,1467.55 1939.777,1460.4 1939.977,1456.6C1940.027,1455.85 1939.577,1455.3 1938.877,1455.15L1933.227,1453.9C1932.227,1453.65 1931.427,1454.3 1931.277,1455.35C1930.977,1457.65 1930.227,1458.95 1927.477,1458.95C1923.777,1458.95 1923.527,1456.6 1923.527,1452.75L1923.527,1445.55C1923.527,1441.7 1923.777,1439.35 1927.477,1439.35C1930.177,1439.35 1931.077,1440.65 1931.327,1442.85C1931.477,1443.9 1932.277,1444.6 1933.327,1444.4L1938.877,1443.15C1939.577,1443 1940.027,1442.45 1939.977,1441.75C1939.777,1437.9 1938.127,1430.75 1927.477,1430.75C1915.627,1430.75 1914.927,1439.6 1914.927,1442.9L1914.927,1455.4Z" style="fill-rule:nonzero;"/>
            <path d="M1966.577,1442.8C1967.477,1442.6 1967.927,1442.05 1967.877,1441.15C1967.577,1437.55 1965.177,1430.85 1954.877,1430.85C1943.677,1430.85 1942.777,1439.7 1942.827,1441.2C1942.827,1452.7 1957.877,1451.75 1958.827,1456C1959.127,1457.35 1957.327,1458.8 1954.877,1458.8C1952.527,1458.8 1950.677,1457.4 1950.477,1455C1950.377,1453.95 1949.827,1453.5 1948.827,1453.7L1943.177,1454.95C1942.277,1455.15 1941.827,1455.7 1941.877,1456.6C1942.127,1460.5 1944.377,1467.4 1954.877,1467.4C1966.727,1467.4 1968.427,1458.55 1968.427,1457.05C1968.427,1445.55 1952.627,1445.65 1951.927,1441.75C1951.727,1440.6 1952.927,1439.45 1954.877,1439.45C1957.227,1439.45 1958.877,1440.75 1959.227,1442.8C1959.377,1443.8 1959.877,1444.25 1960.877,1444.05L1966.577,1442.8Z" style="fill-rule:nonzero;"/>
        </g>
    </g>
</svg>
